<?xml version="1.0" encoding="utf-8"?>
<!-- Generator: Adobe Illustrator 23.0.1, SVG Export Plug-In . SVG Version: 6.00 Build 0)  -->
<svg version="1.1" id="Layer_1" xmlns="http://www.w3.org/2000/svg" xmlns:xlink="http://www.w3.org/1999/xlink" x="0px" y="0px"
	 viewBox="0 0 684 500" style="enable-background:new 0 0 684 500;" xml:space="preserve">
<style type="text/css">
	.st0{fill:#0000FF;}
	.st1{fill:#FFC40A;}
	.st2{fill:#CCC202;}
	.st3{fill:#E2DC07;}
	.st4{fill:#FFFF00;stroke:#FFFFFF;stroke-width:2;stroke-miterlimit:10;}
	.st5{fill:#7F7F7C;}
	.st6{fill:#AAAAAA;}
	.st7{fill:#BFBFBF;stroke:#FFFFFF;stroke-width:2;stroke-miterlimit:10;}
	.st8{fill:#231709;}
	.st9{fill:#2D1D08;}
	.st10{fill:#422802;stroke:#FFFFFF;stroke-width:2;stroke-miterlimit:10;}
</style>
<rect class="st0" width="684" height="500"/>
<rect x="12" y="146" class="st1" width="661" height="90"/>
<g>
	<path class="st2" d="M92.2,236c0-0.1,0-0.1,0-0.2c0-12.3-6.9-22.3-15.4-22.3s-15.4,10-15.4,22.3c0,0.1,0,0.1,0,0.2H92.2z"/>
	<path class="st2" d="M94.2,201.5c18.5,0,33.5-10,33.5-22.3c0-12.3-15-22.3-33.5-22.3v-6.9c24.2,0,43.8,13.1,43.8,29.1
		s-19.7,29.1-43.8,29.1V201.5z"/>
	<path class="st2" d="M61.3,201.5c-18.5,0-33.5-10-33.5-22.3c0-12.3,15-22.3,33.5-22.3v-6.9c-24.2,0-43.8,13.1-43.8,29.1
		s19.7,29.1,43.8,29.1V201.5z"/>
	<path class="st3" d="M39.4,146c0,0.3,0,0.5,0,0.8c0,42.5,17.2,77,38.3,77s38.3-34.5,38.3-77c0-0.3,0-0.5,0-0.8H39.4z"/>
	<polygon class="st4" points="77.8,152 86.4,170.1 105.8,172.9 91.8,187 95.1,206.8 77.8,197.5 60.4,206.8 63.7,187 49.7,172.9 
		69.1,170.1 	"/>
</g>
<g>
	<path class="st5" d="M91.2,336c0-0.1,0-0.1,0-0.2c0-12.3-6.9-22.3-15.4-22.3s-15.4,10-15.4,22.3c0,0.1,0,0.1,0,0.2H91.2z"/>
	<path class="st5" d="M93.2,301.5c18.5,0,33.5-10,33.5-22.3c0-12.3-15-22.3-33.5-22.3v-6.9c24.2,0,43.8,13.1,43.8,29.1
		c0,16.1-19.7,29.1-43.8,29.1V301.5z"/>
	<path class="st5" d="M60.3,301.5c-18.5,0-33.5-10-33.5-22.3c0-12.3,15-22.3,33.5-22.3v-6.9c-24.2,0-43.8,13.1-43.8,29.1
		c0,16.1,19.7,29.1,43.8,29.1V301.5z"/>
	<path class="st6" d="M38.4,246c0,0.3,0,0.5,0,0.8c0,42.5,17.2,76.9,38.3,76.9s38.3-34.5,38.3-76.9c0-0.3,0-0.5,0-0.8H38.4z"/>
	<polygon class="st7" points="76.8,252 85.4,270.1 104.8,272.9 90.8,287 94.1,306.8 76.8,297.5 59.4,306.8 62.7,287 48.7,272.9 
		68.1,270.1 	"/>
</g>
<g>
	<path class="st8" d="M87.2,436c0-0.1,0-0.1,0-0.2c0-12.3-6.9-22.3-15.4-22.3s-15.4,10-15.4,22.3c0,0.1,0,0.1,0,0.2H87.2z"/>
	<path class="st8" d="M89.2,401.5c18.5,0,33.5-10,33.5-22.3c0-12.3-15-22.3-33.5-22.3v-6.9c24.2,0,43.8,13.1,43.8,29.1
		c0,16.1-19.7,29.1-43.8,29.1V401.5z"/>
	<path class="st8" d="M56.3,401.5c-18.5,0-33.5-10-33.5-22.3c0-12.3,15-22.3,33.5-22.3v-6.9c-24.2,0-43.8,13.1-43.8,29.1
		c0,16.1,19.7,29.1,43.8,29.1V401.5z"/>
	<path class="st9" d="M34.4,346c0,0.3,0,0.5,0,0.8c0,42.5,17.2,76.9,38.3,76.9s38.3-34.5,38.3-76.9c0-0.3,0-0.5,0-0.8H34.4z"/>
	<polygon class="st10" points="72.8,352 81.4,370.1 100.8,372.9 86.8,387 90.1,406.8 72.8,397.5 55.4,406.8 58.7,387 44.7,372.9 
		64.1,370.1 	"/>
</g>
</svg>
